<mxfile host="app.diagrams.net" modified="2024-04-25T10:21:45.256Z" agent="Mozilla/5.0 (Windows NT 10.0; Win64; x64) AppleWebKit/537.36 (KHTML, like Gecko) Chrome/124.0.0.0 Safari/537.36" version="24.2.8" etag="30lgZYVW9oTN9-vAf8Xl" type="github">
  <diagram name="Page-1" id="57lToFR_dllUu_VP9jIw">
    <mxGraphModel>
      <root>
        <mxCell id="0" />
        <mxCell id="1" parent="0" />
      </root>
    </mxGraphModel>
  </diagram>
</mxfile>
